<svg
  width="329"
  height="162"
  viewBox="0 0 329 162"
  fill="none"
  xmlns="http://www.w3.org/2000/svg"
>
  <g clip-path="url(#clip0_2_13)">
    <rect width="329" height="162" fill="#231F20" />
    <path
      d="M48.9021 86.3954C49.4533 87.1852 49.2688 88.2833 48.4928 88.8419C47.7167 89.403 46.6379 89.2152 46.089 88.4254L0.317789 22.7153C-0.233471 21.9255 -0.0489283 20.8274 0.727095 20.2688C1.50312 19.7077 2.58198 19.8955 3.13087 20.6853L48.9021 86.3954Z"
      fill="#037971"
    />
    <path
      d="M49.1032 88.5891C48.5448 89.3741 47.4683 89.5523 46.6947 88.984C45.9234 88.4157 45.7483 87.3201 46.3067 86.5326L92.6339 21.2271C93.1922 20.4421 94.2687 20.2639 95.0424 20.8322C95.8137 21.4005 95.9887 22.4962 95.4304 23.2836L49.1032 88.5891Z"
      fill="#037971"
    />
    <path
      d="M2.25549 23.1512C1.30203 23.1487 0.533101 22.3613 0.535467 21.3909C0.537833 20.4205 1.31149 19.6379 2.26496 19.6403L94.3752 19.6523C95.3286 19.6547 96.0976 20.4421 96.0952 21.4126C96.0928 22.383 95.3192 23.1656 94.3657 23.1632L2.25549 23.1512Z"
      fill="#037971"
    />
    <path
      d="M48.9683 158.665C48.9683 159.484 48.3153 160.146 47.5133 160.146C46.7089 160.146 46.0582 159.481 46.0582 158.665V88.7167C46.0582 87.898 46.7112 87.2358 47.5133 87.2358C48.3177 87.2358 48.9683 87.9004 48.9683 88.7167V158.665Z"
      fill="#037971"
    />
    <path
      d="M38.1679 162C37.3635 162 36.7128 161.335 36.7128 160.519C36.7128 159.7 37.3658 159.038 38.1679 159.038H56.9912C57.7956 159.038 58.4462 159.703 58.4462 160.519C58.4462 161.338 57.7932 162 56.9912 162H38.1679Z"
      fill="#037971"
    />
    <path
      d="M45.7294 61.7204C45.1923 62.3224 45.2373 63.2543 45.8287 63.8009C46.4202 64.3476 47.3358 64.3018 47.8729 63.6998L98.3641 7.04391C98.9012 6.4419 98.8562 5.51 98.2648 4.96338C97.6733 4.41676 96.7577 4.46251 96.2206 5.06451L45.7294 61.7204Z"
      fill="#037971"
    />
    <path
      d="M102.663 3.75938C103.323 6.42265 101.736 9.12685 99.1189 9.79869C96.5021 10.4705 93.8452 8.85475 93.1851 6.19148C92.525 3.52821 94.1126 0.824 96.7293 0.152163C99.346 -0.519675 102.003 1.09611 102.663 3.75938Z"
      fill="#037971"
    />
    <path
      d="M73.1789 39.203C73.1812 38.7021 72.7837 38.2976 72.2916 38.2952L24.7933 38.288C24.5733 38.288 24.3793 38.3771 24.2255 38.5095C24.1498 38.536 24.0717 38.5601 24.0031 38.6106C23.6032 38.8996 23.5086 39.4655 23.7925 39.8724L47.395 73.7581C47.4731 73.8689 47.5724 73.9532 47.6813 74.0158C47.6931 74.0254 47.6978 74.0374 47.7097 74.0447C48.1071 74.3384 48.6631 74.2469 48.9518 73.84L72.8405 40.1638C72.9328 40.0338 72.973 39.8845 72.9896 39.7352C73.0984 39.5859 73.1765 39.4077 73.1789 39.203Z"
      fill="#037971"
    />
    <path
      d="M115.054 56.7044V62.8523H107.567V102.621H101.526V62.8523H93.2835V56.7044H115.054ZM125.562 66.3105C130.029 66.3105 133.679 69.9608 133.679 74.5076V102.493H127.701V74.5076C127.701 73.3549 126.757 72.3303 125.562 72.3303H123.234V102.493H117.256V56.8325H123.234V66.3105H125.562ZM145.004 102.429C140.474 102.429 136.825 98.6508 136.825 94.0399V74.0593C136.825 69.8327 140.222 66.3745 144.375 66.3745H145.697C149.849 66.3745 153.247 69.8327 153.247 74.0593V82.4486L142.676 82.6407V94.0399C142.676 95.3847 143.683 96.4734 145.004 96.4734C146.326 96.4734 147.395 95.3847 147.395 94.0399V90.0694H153.247V94.0399C153.247 98.6508 149.535 102.429 145.004 102.429ZM145.697 72.2662H144.375C143.431 72.2662 142.676 73.0987 142.676 74.0593V76.749L147.395 76.621V74.0593C147.395 73.0987 146.64 72.2662 145.697 72.2662ZM178.289 103.07H176.905C172.501 103.07 168.977 99.4833 168.977 95.0005V64.1331C168.977 59.6503 172.501 56 176.905 56H178.289C182.694 56 186.217 59.6503 186.217 64.1331V67.3992H180.051V64.1331C180.051 63.0444 179.296 62.2759 178.289 62.2759H176.905C175.961 62.2759 175.081 63.0444 175.081 64.1331V95.0005C175.081 95.9611 175.961 96.8577 176.905 96.8577H178.289C179.296 96.8577 180.051 95.9611 180.051 95.0005V78.35H176.528V72.1381H186.217V95.0005C186.217 99.4833 182.694 103.07 178.289 103.07ZM195.341 102.365C195.404 92.3108 195.404 76.2367 195.341 66.3105L189.364 66.3745C189.426 76.2367 189.426 92.2468 189.364 102.301L195.341 102.365ZM189.364 58.6897H195.341V64.6454H189.364V58.6897V58.6897ZM214.154 90.966V102.493H208.366V102.301C207.799 102.429 207.233 102.493 206.604 102.493C202.199 102.493 198.676 98.9069 198.676 94.4241V87.5718C198.676 85.7787 199.368 84.1137 200.626 82.8329C201.822 81.6161 203.458 80.9116 205.22 80.9116H208.24V73.9953C208.24 73.0347 207.422 72.2022 206.478 72.2022H206.163C205.157 72.2022 204.402 73.0347 204.402 73.9953V78.8624H198.55V73.9953C198.55 69.7046 201.948 66.2464 206.163 66.2464H206.478C210.694 66.2464 214.091 69.7046 214.091 73.9953L214.154 90.966ZM206.604 96.5375C207.548 96.5375 208.366 95.769 208.366 94.8084L208.303 86.9314L205.22 86.8674C204.968 86.8674 204.842 86.9955 204.716 87.0595C204.653 87.1876 204.527 87.3157 204.527 87.5718V94.4241C204.527 95.5769 205.471 96.5375 206.604 96.5375ZM233.597 66.3105C237.687 66.3105 241.021 69.7046 241.021 73.8672V102.365H235.107V73.8672C235.107 73.0347 234.415 72.3943 233.597 72.3943C232.779 72.3943 232.15 73.0347 232.15 73.8672V102.365H226.172V73.8672C226.172 73.0347 225.543 72.3943 224.725 72.3943C223.907 72.3943 223.215 73.0347 223.215 73.8672V102.685H217.3V65.0937H223.215V66.5026C223.718 66.3745 224.222 66.3105 224.725 66.3105C226.361 66.3105 227.934 66.8868 229.192 67.8474C230.388 66.8868 231.961 66.3105 233.597 66.3105V66.3105ZM258.828 75.4042C260.212 76.8131 261.093 78.7343 261.093 80.8476V94.8724C261.093 99.0991 257.695 102.557 253.543 102.557H244.23L244.167 56.9606H252.473C257.066 57.1527 259.772 61.6355 259.709 65.8622L259.646 72.2022C259.646 73.3549 259.331 74.4436 258.828 75.4042V75.4042ZM253.543 96.4094C254.424 96.4094 255.116 95.7049 255.116 94.8724L255.053 80.8476C255.053 79.951 254.361 79.3106 253.543 79.3106H250.208V96.4094H253.543ZM250.145 63.0444V73.1628H252.662C253.165 73.1628 253.669 72.7145 253.669 72.1381L253.731 65.7982C253.731 64.5174 253.102 63.1085 252.221 63.0444H250.145V63.0444ZM279.844 90.966V102.493H274.055V102.301C273.489 102.429 272.922 102.493 272.293 102.493C267.889 102.493 264.365 98.9069 264.365 94.4241V87.5718C264.365 85.7787 265.057 84.1137 266.316 82.8329C267.511 81.6161 269.147 80.9116 270.909 80.9116H273.929V73.9953C273.929 73.0347 273.111 72.2022 272.167 72.2022H271.853C270.846 72.2022 270.091 73.0347 270.091 73.9953V78.8624H264.239V73.9953C264.239 69.7046 267.637 66.2464 271.853 66.2464H272.167C276.383 66.2464 279.781 69.7046 279.781 73.9953L279.844 90.966ZM272.293 96.5375C273.237 96.5375 274.055 95.769 274.055 94.8084L273.992 86.9314L270.909 86.8674C270.657 86.8674 270.531 86.9955 270.405 87.0595C270.343 87.1876 270.217 87.3157 270.217 87.5718V94.4241C270.217 95.5769 271.16 96.5375 272.293 96.5375ZM291.169 67.7834C295.448 67.7834 298.909 71.2416 298.909 75.5963V78.6702H292.931V75.5963C292.931 74.5717 292.176 73.8032 291.169 73.8032H289.848C288.904 73.8032 288.086 74.5717 288.086 75.5963L287.96 102.621H282.046L282.172 75.5963V66.3745H288.086V67.9755C288.652 67.8474 289.282 67.7834 289.848 67.7834H291.169V67.7834Z"
      fill="#037971"
    />
  </g>
  <defs>
    <clipPath id="clip0_2_13">
      <rect width="329" height="162" fill="white" />
    </clipPath>
  </defs>
</svg>
